<svg width="512" height="512" viewBox="0 0 512 512" fill="none" xmlns="http://www.w3.org/2000/svg">
<path d="M456.019 257.313C455.052 245.592 449.447 234.978 438.622 229.554C436.626 228.668 432.796 227.143 428.974 226.744C481.93 179.02 432.545 118.651 386.954 139.616C386.936 139.642 436.568 59.6572 438.318 56.8338C441.353 51.9777 440.059 46.2768 440.313 31.5633C443.645 -7.61256 425.838 1.61182 420.643 0.235471C382.369 0.235937 191.243 0.235936 123.419 0.235936C107.953 1.25482 90.029 -4.59315 86.7443 11.4441C86.2937 15.38 86.7587 13.0229 86.6261 15.9297C86.6261 33.8371 86.4315 133.678 86.6261 138.167C87.1241 149.649 94.0538 151.981 101.138 151.113C106.901 150.406 110.174 147.982 115.57 133.334C121.427 117.438 134.626 98.9248 147.192 87.8931C171.533 106.199 192.605 98.9164 210.658 81.6313C203.902 98.4677 200.667 120.371 205.046 138.869C183.086 140.056 171.931 159.567 175.184 179.441C150.607 161.34 118.121 191.018 124.728 218.395C106.967 199.986 79.2198 221.584 86.1425 244.956C88.0499 253.398 94.0957 261.702 102.666 265.997C104.662 266.882 108.491 268.408 112.314 268.806C62.5346 313.057 102.828 372.515 149.956 357.848C149.975 357.829 90.0341 454.916 86.6661 460.382C83.5071 463.945 81.3651 507.81 91.0083 509.906C93.6866 511.742 98.7242 511.688 97.6532 511.677C102.756 511.675 302.694 511.678 389.364 511.677C417.742 510.314 440.836 517.831 441.672 498.227C441.672 489.102 441.672 353.854 441.672 341.804C443.979 333.352 425.266 317.466 416.13 337.776C409.41 364.454 400.412 387.877 390.167 404.966C368.465 390.015 346.498 397.675 330.63 413.918C337.322 396.608 340.388 375.966 336.242 356.681C357.065 356.228 369.875 336.406 366.104 316.114C370.54 319.594 375.141 320.766 377.211 321.136C400.261 325.261 421.937 300.552 416.559 277.155C430.987 293.561 457.725 278.053 456.019 257.313ZM432.532 165.237C452.736 199.55 415.812 232.566 384.427 242.53C322.743 227.15 296.086 280.3 320.271 329.117C306.891 317.36 284.215 315.931 269.83 328.386L364.662 175.544C369.623 219.409 409.91 209.731 415.503 191.27C418.394 181.723 412.434 169.995 401.497 173.075C393.568 175.308 393.831 186.603 400.665 188.747C403.379 189.599 406.308 188.971 408.399 187.716C408.399 200.266 383.509 203.612 377.948 186.093C375.099 177.115 375.249 164.068 384.345 156.133C399.92 142.545 423.377 150.753 432.532 165.237ZM299.868 442.18C311.233 421.232 307.388 390.935 287.823 377.722C303.399 377.636 309.603 361.158 299.67 355.547C294.633 352.701 287.59 356.97 286.457 363.205C285.829 366.656 290.048 372.626 293.141 372.066C256.651 377.323 263.228 321.894 299.532 329.477C348.492 342.872 324.608 419.799 299.868 442.18ZM325.307 439.36C335.939 436.354 347.266 442.502 359.359 438.66C345.427 448.29 326.484 449.715 309.733 449.021C314.359 444.641 319.568 441.029 325.307 439.36ZM287.326 407.786C277.446 386.168 249.697 379.192 235.264 399.553C223.718 413.795 235.136 437.622 254.086 431.629C264.005 425.275 261.814 418.672 256.89 415.255C250.487 410.814 241.591 414.972 244.415 425.639C240.964 424.698 238.336 419.067 238.204 416.728C237.398 402.421 256.972 392.201 268.224 400.844C278.221 408.524 280.815 424.234 277.988 435.844C276.807 440.697 274.576 445.305 271.21 449.021H194.98L238.705 378.55L238.865 378.855C287.814 359.876 317.616 411.184 287.978 449.021H284.82C291.004 437.262 293.535 421.28 287.326 407.786ZM260.227 363.947C261.041 365.643 262.064 367.209 263.231 368.64C256.636 367.84 250.089 368.283 244.045 369.945L258.902 345.999C257.563 350.184 257.469 358.496 260.227 363.947ZM191.706 85.8544C181.526 91.2187 166.188 91.7107 155.73 82.9262C166.816 70.5852 199.027 62.4281 219.637 62.9359C218.633 64.0874 204.633 79.0425 191.706 85.8544ZM235.119 83.9213C236.208 98.1214 243.012 110.609 253.466 117.83C237.87 117.88 234.538 134.109 242.549 140.092C254.289 146.701 261.049 128.079 250.689 123.713C285.55 121.259 280.429 164.67 249.855 166.547C197.014 165.401 211.371 89.3234 233.484 62.8898H237.605C235.46 69.7604 234.576 76.8437 235.119 83.9213ZM253.962 87.7637C283.968 139.137 334.43 79.9808 297.895 62.8903H332.022L297.521 118.784C259.904 129.197 231.899 97.6401 244.416 62.8903H250.961C249.599 71.0716 250.339 79.8724 253.962 87.7637ZM287.992 81.3758C294.13 82.4607 299.025 76.9479 298.411 71.4188C301.394 74.097 302.559 79.6815 301.3 84.3551C288.55 115.592 254.298 86.4408 262.838 62.8903H288.203C279.106 65.3911 277.768 79.0941 287.992 81.3758ZM292.67 126.643L283.376 141.7C283.398 137.073 280.809 129.936 278.042 126.891C280.207 127.155 288.496 127.347 292.67 126.643ZM184.566 166.917C184.834 156.1 193.368 147.552 204.466 145.924C208.821 159.796 198.414 171.767 184.767 173.669C184.514 171.388 184.415 169.123 184.566 166.917ZM139.445 195.197C156.22 169.542 192.004 191.798 171.323 210.079C178.143 186.617 141.384 198.575 159.602 213.449C175.96 222.747 192.423 199.41 180.618 184.889C191.177 183.006 204.115 178.066 209.966 166.573C254.814 271.629 108.653 258.263 139.445 195.197ZM107.31 256.96C99.4279 252.917 96.4402 244.445 95.6117 236.228C93.9849 220.094 125.619 211.346 121.751 233.319C110.922 217.182 98.1605 244.559 117.624 242.918C123.623 242.412 129.454 231.975 127.706 227.761C130.7 234.979 137.834 243.183 145.374 247.663C139.774 250.115 132.023 254.231 125.44 258.608C119.714 260.096 113.643 260.209 107.31 256.96ZM145.601 344.936C123.72 351.618 99.8831 330.433 103.437 306.883C106.848 278.791 131.745 262.338 156.861 253.019C218.594 268.377 245.064 215.327 221.017 166.433C232.384 176.29 250.772 179.28 264.939 171.569C264.939 171.569 176.309 315.156 176.244 315.26C175.078 300.142 161.547 289.155 150.606 287.592C139.625 286.023 122.91 295.388 123.31 310.181C123.624 321.79 132.001 324.654 139.675 324.167C148.721 323.593 148.597 310.585 141.44 307.153C138.152 305.576 135.128 306.986 132.74 309.24C132.095 298.887 145.26 295.127 151.225 297.092C164.348 301.416 172.103 324.031 157.041 337.542C153.507 340.711 150.181 343.44 145.601 344.936ZM332.577 421.494C344.767 408.614 363.584 398.114 380.631 410.01C378.269 408.38 365.743 425.314 363.485 427.334C351.868 437.728 334.218 427.107 320.124 434.385C323.163 430.671 327.973 425.825 332.577 421.494ZM336.342 349.086C333.518 339.987 337.283 326.183 356.521 321.881C357.363 338.732 347.951 347.204 336.342 349.086ZM401.843 300.354C385.068 326.009 349.284 303.751 369.965 285.472C363.146 308.934 399.905 296.973 381.685 282.101C374.183 277.837 365.31 279.615 360.501 285.083C354.825 291.535 354.28 302.802 360.671 310.662C350.111 312.546 337.174 317.484 331.322 328.979C286.474 223.921 432.635 237.287 401.843 300.354ZM444.572 264.997C441.256 277.584 415.29 280.764 419.537 262.232C423.04 268.663 428.897 269.081 432.281 263.433C436.751 255.97 426.805 248.374 420.112 253.394C416.295 256.256 414.177 260.663 413.582 267.789C410.588 260.57 403.454 252.367 395.913 247.886C401.513 245.435 409.265 241.319 415.848 236.942C421.574 235.454 427.645 235.341 433.978 238.589C443.554 243.502 447.189 255.063 444.572 264.997Z" fill="url(#paint0_linear_34_102)"/>
<path d="M428.704 507.625C433.62 507.625 437.62 503.626 437.62 498.709V340.953C437.62 336.464 434.26 332.66 429.806 332.106C425.23 331.525 421.153 334.451 420.061 338.768C410.258 377.547 396.84 406.847 380.181 425.856C364.128 444.172 345.302 453.074 322.627 453.074H194.981C193.51 453.074 192.154 452.278 191.439 450.993C190.724 449.707 190.762 448.135 191.537 446.885L434.92 54.6218C435.797 53.2115 436.26 51.5871 436.26 49.9235V13.2039C436.26 8.2868 432.26 4.28809 427.344 4.28809H99.5941C94.678 4.28809 90.6784 8.2868 90.6784 13.2039V138.319C90.6784 142.66 93.7811 146.353 98.0558 147.102C98.5632 147.19 99.084 147.236 99.6016 147.236C103.34 147.236 106.706 144.871 107.978 141.352C128.052 85.8291 165.568 58.8384 222.67 58.8384H332.022C333.49 58.8384 334.845 59.6329 335.56 60.9171C336.277 62.1994 336.242 63.7699 335.47 65.0201L89.969 462.748C89.0991 464.155 88.6401 465.775 88.6401 467.429V498.709C88.6401 503.626 92.6398 507.625 97.5559 507.625H428.704V507.625Z" fill="#1CC6FF"/>
<defs>
<linearGradient id="paint0_linear_34_102" x1="270.048" y1="0" x2="270.048" y2="512" gradientUnits="userSpaceOnUse">
<stop stop-color="#2C7BBC"/>
<stop offset="1" stop-color="#005E8C"/>
</linearGradient>
</defs>
</svg>
