<svg width="103" height="24" viewBox="0 0 103 24" fill="none" xmlns="http://www.w3.org/2000/svg">
<g clip-path="url(#clip0_25_2)">
<path d="M30.284 6.911V9.02L25.724 14.72H30.379L30.113 17H22.247V14.872L26.826 9.172H22.646V6.911H30.284ZM40.6957 11.756C40.6957 12.079 40.6767 12.535 40.6387 12.839H34.4067C34.5967 14.644 35.4517 15.138 36.6867 15.138C37.5037 15.138 38.2257 14.853 39.0997 14.245L40.3347 15.917C39.3277 16.715 38.0357 17.323 36.4017 17.323C33.0387 17.323 31.3287 15.157 31.3287 12.003C31.3287 8.982 32.9817 6.588 36.0407 6.588C38.9287 6.588 40.6957 8.488 40.6957 11.756ZM37.7507 11.034V10.901C37.7317 9.533 37.3137 8.583 36.1167 8.583C35.1097 8.583 34.5397 9.21 34.3877 11.034H37.7507ZM47.7392 14.606L48.7462 16.525C47.9862 17.057 46.9222 17.323 46.0102 17.323C43.7872 17.304 42.7042 16.05 42.7042 13.675V9.001H41.2792V6.911H42.7042V4.726L45.7062 4.384V6.911H48.0242L47.7012 9.001H45.7062V13.637C45.7062 14.606 46.0292 14.948 46.6562 14.948C46.9982 14.948 47.3402 14.853 47.7392 14.606ZM57.7663 14.074C57.7663 14.853 57.9753 15.138 58.4503 15.309L57.8233 17.266C56.6453 17.171 55.8663 16.81 55.3913 15.822C54.6693 16.924 53.5483 17.323 52.3513 17.323C50.3373 17.323 49.0643 16.012 49.0643 14.169C49.0643 11.965 50.7363 10.768 53.7953 10.768H54.8213V10.331C54.8213 9.134 54.3463 8.773 53.1113 8.773C52.4653 8.773 51.4773 8.963 50.4703 9.305L49.7863 7.329C51.0593 6.854 52.4463 6.588 53.5863 6.588C56.5123 6.588 57.7663 7.823 57.7663 10.16V14.074ZM53.2253 15.176C53.9093 15.176 54.4603 14.815 54.8213 14.226V12.421H54.0803C52.7123 12.421 52.0473 12.896 52.0473 13.903C52.0473 14.701 52.4843 15.176 53.2253 15.176Z" fill="black"/>
<path d="M62.843 15.689C63.318 15.689 63.622 16.031 63.622 16.449C63.622 16.867 63.318 17.209 62.843 17.209C62.406 17.209 62.083 16.867 62.083 16.449C62.083 16.031 62.406 15.689 62.843 15.689ZM70.7149 6.892C72.9949 6.892 74.3059 8.697 74.3059 11.984C74.3059 15.195 72.9569 17.209 70.5819 17.209C69.2709 17.209 68.2639 16.525 67.6559 15.689L67.5609 17H66.8009V3.035L67.6749 2.921V8.507C68.3779 7.557 69.3849 6.892 70.7149 6.892ZM70.4489 16.449C72.3109 16.449 73.3749 14.929 73.3749 11.984C73.3749 9.02 72.3679 7.633 70.5819 7.633C69.2329 7.633 68.4159 8.393 67.6749 9.4V14.796C68.3209 15.765 69.2519 16.449 70.4489 16.449ZM79.2872 17.209C78.3182 17.209 77.6532 16.639 77.6532 15.442V3.035L78.5272 2.921V15.404C78.5272 16.088 78.8122 16.43 79.3822 16.43C79.6292 16.43 79.8762 16.373 80.0852 16.297L80.3322 16.962C80.0472 17.095 79.6672 17.209 79.2872 17.209ZM89.894 7.082V17H89.153L89.096 15.157C88.431 16.335 87.386 17.209 85.809 17.209C84.023 17.209 82.997 16.126 82.997 14.169V7.082H83.871V14.093C83.871 15.746 84.612 16.449 85.98 16.449C87.367 16.449 88.317 15.556 89.02 14.321V7.082H89.894ZM100.935 11.642C100.935 11.946 100.916 12.231 100.897 12.421H94.1713C94.3043 15.233 95.6343 16.43 97.4203 16.43C98.5413 16.43 99.2633 16.088 100.118 15.423L100.555 15.993C99.6433 16.753 98.6933 17.209 97.3823 17.209C94.8363 17.209 93.2593 15.309 93.2593 12.117C93.2593 8.925 94.7793 6.892 97.1543 6.892C99.6813 6.892 100.935 8.773 100.935 11.642ZM100.08 11.718V11.357C100.08 9.134 99.1683 7.633 97.1923 7.633C95.5773 7.633 94.2663 8.868 94.1713 11.718H100.08Z" fill="#2C77BF"/>
<path d="M2.98445 2.22271C3.34871 1.61979 4.10037 1.37571 4.74935 1.64961L14.0178 5.56139C14.8469 5.91129 15.3423 6.76966 15.2305 7.66255V7.66255C15.0526 9.08337 13.4881 9.8676 12.2433 9.15999L3.49736 4.18854C2.80376 3.79427 2.57189 2.90559 2.98445 2.22271V2.22271Z" fill="url(#paint0_linear_25_2)"/>
<path d="M1.79457 14.4438C1.01505 13.137 1.48543 11.4439 2.82732 10.7264L12.2445 5.69163C13.024 5.27489 13.9767 5.36188 14.6678 5.9129V5.9129C15.8491 6.85477 15.7604 8.67723 14.4931 9.49987L5.53629 15.3143C4.26787 16.1377 2.56928 15.7425 1.79457 14.4438V14.4438Z" fill="url(#paint1_linear_25_2)"/>
<path d="M1.63638 12.0124C2.31356 10.5903 3.99627 9.9612 5.44027 10.5903L15.6659 15.0449C17.4809 15.8355 18.2663 17.983 17.3898 19.7581V19.7581C16.5119 21.5357 14.3248 22.2165 12.5931 21.2511L2.85121 15.8195C1.50572 15.0693 0.974072 13.4032 1.63638 12.0124V12.0124Z" fill="url(#paint2_linear_25_2)"/>
</g>
<defs>
<linearGradient id="paint0_linear_25_2" x1="11.9603" y1="5.35827" x2="3.17699" y2="2.83024" gradientUnits="userSpaceOnUse">
<stop stop-color="#2D70BA"/>
<stop offset="1" stop-color="#374A9B"/>
</linearGradient>
<linearGradient id="paint1_linear_25_2" x1="15.0701" y1="7.22389" x2="5.4013" y2="10.4098" gradientUnits="userSpaceOnUse">
<stop stop-color="#2D70BA"/>
<stop offset="1" stop-color="#2986CC"/>
</linearGradient>
<linearGradient id="paint2_linear_25_2" x1="16.6967" y1="15.8833" x2="1.91359" y2="13.2042" gradientUnits="userSpaceOnUse">
<stop stop-color="#1EB6F4"/>
<stop offset="1" stop-color="#2986CC"/>
</linearGradient>
<clipPath id="clip0_25_2">
<rect width="103" height="24" fill="white"/>
</clipPath>
</defs>
</svg>
